<svg width="14.000000" height="14.000000" viewBox="0 0 14 14" fill="none" xmlns="http://www.w3.org/2000/svg" xmlns:xlink="http://www.w3.org/1999/xlink">
	<desc>
			Created with Pixso.
	</desc>
	<defs/>
	<path id="Symbol" d="M14 6.96C14 5.09 13.18 3.37 11.87 2.06C10.59 0.75 8.84 0 6.96 0C3.15 0 0.03 3.12 0.03 6.93C0.03 8.18 0.37 9.37 0.96 10.4L-1.44e-6 14L3.65 13.06C4.68 13.59 5.81 13.9 6.96 13.9C10.81 13.9 14 10.78 14 6.96ZM12.81 6.96C12.81 10.12 10.15 12.71 6.96 12.71C5.93 12.71 4.93 12.43 4.03 11.9L3.84 11.78L1.65 12.37L2.25 10.25L2.09 10.03C1.53 9.09 1.21 8.03 1.21 6.93C1.21 3.78 3.81 1.18 7 1.18C8.53 1.18 9.96 1.78 11.06 2.87C12.15 3.96 12.81 5.4 12.81 6.96ZM10.46 8.62C10.43 8.53 10.31 8.5 10.15 8.4C9.96 8.31 9.12 7.9 8.96 7.84C8.81 7.78 8.68 7.75 8.56 7.93C8.46 8.09 8.12 8.5 8.03 8.62C7.9 8.71 7.81 8.75 7.65 8.65C6.62 8.15 5.96 7.75 5.28 6.59C5.17 6.42 5.24 6.35 5.37 6.21C5.48 6.1 5.64 5.95 5.78 5.65C5.84 5.53 5.81 5.43 5.78 5.34C5.75 5.25 5.37 4.4 5.25 4.06C5.1 3.74 4.98 3.74 4.87 3.74C4.86 3.74 4.85 3.75 4.84 3.75L4.53 3.75C4.4 3.75 4.21 3.78 4.06 3.96C3.9 4.15 3.46 4.56 3.46 5.4C3.46 6.28 4.06 7.09 4.15 7.21C4.25 7.31 5.37 9.06 7.12 9.81C8.21 10.31 8.65 10.34 9.21 10.25C9.53 10.21 10.21 9.84 10.37 9.43C10.53 9.03 10.53 8.68 10.46 8.62Z" fill="#FFFFFF" fill-opacity="1.000000" fill-rule="evenodd"/>
</svg>
